<?xml version="1.0" encoding="utf-8"?>
<!-- Generator: Adobe Illustrator 18.1.1, SVG Export Plug-In . SVG Version: 6.00 Build 0)  -->
<svg version="1.1" id="图层_1" xmlns="http://www.w3.org/2000/svg" xmlns:xlink="http://www.w3.org/1999/xlink" x="0px" y="0px"
	 viewBox="0 0 612 792" enable-background="new 0 0 612 792" xml:space="preserve">
<path fill="#FFFFFF" d="M420.4,191L215.9,395.5c-8.5,8.5-22.5,8.5-31,0l-0.9-0.9c-8.5-8.5-8.5-22.5,0-31l204.5-204.5
	c8.5-8.5,22.5-8.5,31,0l0.9,0.9C428.9,168.6,428.9,182.5,420.4,191z"/>
<path fill="#FFFFFF" d="M215.9,365.1l204.5,204.5c8.5,8.5,8.5,22.5,0,31l-0.9,0.9c-8.5,8.5-22.5,8.5-31,0L184,397
	c-8.5-8.5-8.5-22.5,0-31l0.9-0.9C193.4,356.6,207.4,356.6,215.9,365.1z"/>
</svg>
