<?xml version="1.0" encoding="utf-8"?>
<!-- Generator: Adobe Illustrator 22.0.0, SVG Export Plug-In . SVG Version: 6.00 Build 0)  -->
<svg version="1.1" id="图层_2_1_" xmlns="http://www.w3.org/2000/svg" xmlns:xlink="http://www.w3.org/1999/xlink" x="0px"
	 y="0px" viewBox="0 0 1024 1024" style="enable-background:new 0 0 1024 1024;" xml:space="preserve">
<style type="text/css">
	.st0{fill:none;stroke:#FFFFFF;stroke-width:80;stroke-linecap:round;stroke-linejoin:round;stroke-miterlimit:10;}
</style>
<g>
	<path class="st0" d="M131.5,412.5h271c6.6,0,12-5.4,12-12v-271c0-6.6-5.4-12-12-12h-253c-16.5,0-30,13.5-30,30v253
		C119.5,407.1,124.9,412.5,131.5,412.5z"/>
	<path class="st0" d="M403,609H150c-16.5,0-30,13.5-30,30v253c0,6.6,5.4,12,12,12h271c6.6,0,12-5.4,12-12V621
		C415,614.4,409.6,609,403,609z"/>
	<path class="st0" d="M623.5,412.5h271c6.6,0,12-5.4,12-12v-271c0-6.6-5.4-12-12-12h-253c-16.5,0-30,13.5-30,30v253
		C611.5,407.1,616.9,412.5,623.5,412.5z"/>
	<path class="st0" d="M895,609H642c-16.5,0-30,13.5-30,30v253c0,6.6,5.4,12,12,12h271c6.6,0,12-5.4,12-12V621
		C907,614.4,901.6,609,895,609z"/>
</g>
</svg>
